# xmcd CD database file
#
# Track frame offsets:
#	150
#	28328
#	56249
#	81299
#	107591
#	139661
#	167606
#	198451
#	225328
#	251174
#	277908
#	306494
#
# Disc length: 4312 seconds
#
# Revision: 0
# Processed by: cddbd v1.5.2PL0 Copyright (c) Steve Scherf et al.
# Submitted via: CDex 1.91
#
DISCID=a710d60c
DTITLE=Grand Dominion Jazz Band  - Smiles
DYEAR=1997
DGENRE=Jazz
TTITLE0=Smiles
TTITLE1=On The Road To Home Sweet Home
TTITLE2=Poor Wayfaring Stranger
TTITLE3=Fair And Square
TTITLE4=Brahams Lullaby
TTITLE5=If Those Lips Could Only Speak
TTITLE6=Oh My Babe Blues
TTITLE7=Lead Me Savior
TTITLE8=My Curly-Headed Baby
TTITLE9=My Memphis Baby
TTITLE10=Sentimental Gentleman From Georgia
TTITLE11=Oh Lord, Is It I?
EXTD=YEAR: 1997
EXTT0=
EXTT1=
EXTT2=
EXTT3=
EXTT4=
EXTT5=
EXTT6=
EXTT7=
EXTT8=
EXTT9=
EXTT10=
EXTT11=
PLAYORDER=
